{"title":"Dying Breed 2008 DVDrip English Klam","uid":6454514,"size":1571233405,"categoryP":"video","categoryS":"movies","magnet":"?xt=urn:btih:355a73d3c962120db6c34f9cdf90a5ec936664df&amp;dn=Dying+Breed+2008+DVDrip+English+Klam&amp;tr=udp%3A%2F%2Ftracker.openbittorrent.com%3A80&amp;tr=udp%3A%2F%2Fopen.demonii.com%3A1337&amp;tr=udp%3A%2F%2Ftracker.coppersurfer.tk%3A6969&amp;tr=udp%3A%2F%2Fexodus.desync.com%3A6969","seeders":3,"leechers":1,"uploader":"Klambake","files":-1,"time":1307539248,"description":"With: Nathan Phillips, Leigh Whannell and Mirrah Foulkes\n\nDe film speelt zich af in de Tasmaanse jungle. ZoÃƒÂ¶logiedeskundige Nina is op zoek naar sporen van de uitgestorven gewaande Tasmaanse tijger. Er zijn vele getuigenissen van zijn aanwezigheid in dit nog ongerepte gebied. Na het vinden van enkele sporen van de tijger claimt zij dan ook het bestaan van deze katachtige. Vol goede moed zoeken zij en haar vrienden verder. Wat ze echter niet weten is dat zij ook in het territorium zijn aanbeland van de nazaten van &quot;The Pieman&quot;, Alexander Pearce, die in 1824 wegens kannibalisme werd opgehangen. Zijn nakomelingen hebben een dorp genaamd 'Sarah' gesticht. Deze dorpsbewoners hebben nog steeds menselijk vlees nodig om te overleven. In dit geval dient hun bron van leven zich aan in de vorm van een groep wetenschappers.\n\nDying Breed interweaves the two most fascinating icons of Tasmanian history: the extinct Tasmanian tiger and &quot;The Pieman&quot; (aka Alexander Pearce) who was hanged for cannibalism in 1824. Against all odds, Pearce escaped from the most feared penal settlement of the British Empire - Sarah Island - and disappeared into the impenetrable forests of Western Tasmania. Seven convicts escaped with him, yet Pearce was the only one that emerged... along with chunks of human flesh in his pockets. The legend of Pearce was born. An extinct species... a long forgotten legend... both had a desperate need to survive; both could now have living descendants within the Tasmanian bush. Many sightings of the tiger have been reported. Many hikers have gone missing. Hundreds in fact. Zoologist Nina is convinced there are still tigers remaining in the Tasmanian wilderness, and she has proof - a photograph of a paw... \n\nGeneral:\n\nComplete name                    : Dying Breed\\Dying Breed.avi\nFormat                           : AVI\nFormat/Info                      : Audio Video Interleave\nFile size                        : 1.46 GiB\nDuration                         : 1h 28mn\nOverall bit rate                 : 2 375 Kbps\nWriting application              : VirtualDubMod 1.5.4.1 (build 2178/release)\nWriting library                  : VirtualDubMod build 2178/release\n\nVideo:\n\nFormat                           : MPEG-4 Visual\nFormat profile                   : Simple@L3\nFormat settings, BVOP            : No\nFormat settings, QPel            : No\nFormat settings, GMC             : No warppoints\nFormat settings, Matrix          : Default (H.263)\nCodec ID                         : XVID\nCodec ID/Hint                    : XviD\nDuration                         : 1h 28mn\nBit rate                         : 1 984 Kbps\nWidth                            : 720 pixels\nHeight                           : 416 pixels\nDisplay aspect ratio             : 16:9\nFrame rate                       : 25.000 fps\nColor space                      : YUV\nChroma subsampling               : 4:2:0\nBit depth                        : 8 bits\nScan type                        : Progressive\nBits/(Pixel*Frame)               : 0.265\nStream size                      : 1.22 GiB (84%)\nWriting library                  : XviD 1.2.1 (UTC 2008-12-04)\n\nAudio:\n\nFormat                           : AC-3\nFormat/Info                      : Audio Coding 3\nMode extension                   : CM (complete main)\nCodec ID                         : 2000\nDuration                         : 1h 28mn\nBit rate mode                    : Constant\nBit rate                         : 384 Kbps\nChannel(s)                       : 6 channels\nChannel positions                : Front: L C R, Side: L R, LFE\nSampling rate                    : 48.0 KHz\nBit depth                        : 16 bits\nStream size                      : 242 MiB (16%)\nAlignment                        : Split accross interleaves\nInterleave, duration             : 80 ms (2.00 video frames)\nInterleave, preload duration     : 500 ms\nLanguage                         : English\n\n","torrent":{"xt":"urn:btih:355a73d3c962120db6c34f9cdf90a5ec936664df","amp;dn":"Dying+Breed+2008+DVDrip+English+Klam","amp;tr":["udp%3A%2F%2Ftracker.openbittorrent.com%3A80","udp%3A%2F%2Fopen.demonii.com%3A1337","udp%3A%2F%2Ftracker.coppersurfer.tk%3A6969","udp%3A%2F%2Fexodus.desync.com%3A6969"],"infoHash":"355a73d3c962120db6c34f9cdf90a5ec936664df","infoHashBuffer":{"type":"Buffer","data":[53,90,115,211,201,98,18,13,182,195,79,156,223,144,165,236,147,102,100,223]},"announce":[],"urlList":[]}}